<svg xmlns="http://www.w3.org/2000/svg" viewBox="0 0 368.87 126.7" data-inject-url="https://cdn.shopify.com/s/files/1/0014/1962/t/56/assets/logo-omori.svg?v=3787733804146848820" class="injectable" aria-label="OMORI"><g data-name="Layer 2"><g data-name="Layer 1"><path d="M320.22,88.2c-1.2-2.2-1.9-4.9-3.5-6.7-4.8-5.2-9.9-10-14.9-14.9a5.39,5.39,0,0,0-1.3-.7c-1.9-.8-3.9-1.3-5.5-2.4-1.3-.9-2.3-1.8-4-1.6-.4,0-.8-.4-1.4-.8a5.05,5.05,0,0,1,1.3-.8,14.69,14.69,0,0,0,6.6-3.8c4.1-4.4,8.4-8.6,12.6-12.9a2.84,2.84,0,0,0,.9-1.9c.1-3.2.1-6.5,0-9.7a3.41,3.41,0,0,0-.7-1.9c-2.4-3.8-6-6.5-9.1-9.7a11,11,0,0,0-8.8-3.8c-13.3.2-26.5.1-39.8.1a16.41,16.41,0,0,1-2.3-.2,4.84,4.84,0,0,0-5.4,4.5V48.4a4.78,4.78,0,0,0,1,2.8,13,13,0,0,1,3,9.5c-.3,4.8,0,9.7-.1,14.5a5.68,5.68,0,0,0,1.4,3.7,9.21,9.21,0,0,1,2.1,4.6c.3,5,.1,10.1.1,15.1a17.22,17.22,0,0,0,.4,3.9c.5,2.5,2.3,3.5,5,3.3,1.6-.2,4.1-2.9,4.1-4.6V77.5a3.29,3.29,0,0,0-.4-1.7c-1.2-1.7-2.4-3.4-4.1-5.7a27.35,27.35,0,0,1,5-2c1.1-.3,2.4.4,3.5.2,2.6-.6,4.5.3,6.3,2.1a6.32,6.32,0,0,0,3.4,1.2,78.48,78.48,0,0,0,9.7,0,6.84,6.84,0,0,1,5.7,2.7,16.65,16.65,0,0,0,6.4,4.8c2.3.8,4.5,1.6,5.9,3.7a7.64,7.64,0,0,1,1.1,1.6c.7,1.7,1.2,3.5,2,5.2,1,2.1,2.6,4.1,3.3,6.3a8.2,8.2,0,0,0,4.5,4.8c4.2,2.4,7.8.8,8.5-3.9a8.52,8.52,0,0,0-.2-3.9C322.12,91.1,321,89.7,320.22,88.2Zm-37.7-35.5a9,9,0,0,1-3.6,1.2c-1.7.2-3.4-.1-5.2.1a9.78,9.78,0,0,0-2.9.9,13.12,13.12,0,0,0-5,2.8c-1.5,1.4-6.8.2-7.5-1.6a12.13,12.13,0,0,1-.4-4.3,4.84,4.84,0,0,0-1.1-3.6,9.31,9.31,0,0,1-2.1-6.7c.2-3.5,0-7,0-10.5s1.7-5,4.9-4.8c4.2.2,8.5,0,12.7,0s8.2.1,12.3,0a8.05,8.05,0,0,1,5.5,2.1,7.84,7.84,0,0,0,3.2,1.5c3,.5,5,2.6,6.8,4.7,1.1,1.3.1,4.8-1.5,6.4l-8.8,8.5c-.3.3-.6.6-.9.6C286.32,49.7,284.62,51.4,282.52,52.7Z"/><path d="M158.42,41.6c0-3.8-2.1-5.9-5.9-5.9a22.53,22.53,0,0,0-2.6,0c-1.4.3-3,.4-4,1.2a6.08,6.08,0,0,0-2.1,3.8c-.2,2.2-1.5,3.1-2.9,4.4s-3.2,3-3.5,4.7a10.22,10.22,0,0,1-2.5,5.1c-1.9,2.4-4.4,4.4-6.6,6.6-3,3-6,5.9-8.8,9-2.3,2.6-5.3,3-7.5.7-.8-.9-1.8-1.7-2.6-2.6-1.3-1.5-2.9-2.9-3.7-4.6-1.3-2.8-2.2-5.8-4.5-8-.3-.3-.1-1-.2-1.5a14.17,14.17,0,0,0-.8-1.8,16.05,16.05,0,0,0-5.3-5.7,2.4,2.4,0,0,1-.7-1.2c-.1-2.3-1.4-4.1-2.6-6-1-1.7-1.7-3.4-2.7-5.1a16.72,16.72,0,0,0-2.4-3.5c-1.2-1.2-2.9-1.9-4.1-3-.9-.8-1.5-1.2-2.4-.1a2.59,2.59,0,0,1-1.1.7A4.42,4.42,0,0,0,76,33c-.3,4.9-.1,9.8-.1,14.7a3.41,3.41,0,0,0,.7,1.9c2.2,2.9,3.6,5.9,3.4,9.8-.4,7.2-.3,14.4,0,21.7a15.63,15.63,0,0,1-3.2,10.5,4.19,4.19,0,0,0-.8,2.1c-.1,4.8-.1,9.5,0,14.3,0,2.4,3.1,5.1,5.5,4.7,1.2-.2,2.9-.4,3.5-1.2a7.93,7.93,0,0,0,1.5-5.5,88.06,88.06,0,0,1,0-8.9,4.19,4.19,0,0,1,.8-2.1c1.7-2.5,3.1-4.9,3.1-8.1q-.15-13.2,0-26.4A12.88,12.88,0,0,1,91,58c.2,0,.5.1.7.1a5.27,5.27,0,0,1,.3,1.2,5.94,5.94,0,0,0,2.1,5,1.7,1.7,0,0,1,.6,1c.5,4.9,4.3,7.6,7.2,10.7,2,2.2,4.9,3.7,4.9,7.3a1.27,1.27,0,0,0,.4.7c1.6,1.8,3.4,3.1,6,3a45.13,45.13,0,0,0,5.2-.1,15.3,15.3,0,0,0,5.2-1.8c1.4-.9,2.4-2.4,3.6-3.6,1.4-1.3,3.1-2.4,4.1-3.9,1.1-1.7,3.4-2.4,3.5-4.9a7.11,7.11,0,0,1,1.7-4c2.9-3.3,6.1-6.4,9.2-9.5a8.82,8.82,0,0,1,1.9-1.2,10.48,10.48,0,0,1,1,2.8c.1,1.3-.3,2.6-.3,3.9V98.5c0,2.9-.5,5.9,1.1,8.6.5.9,3.3,2.9,4.3,2.5,2.5-1.1,4.9-2.9,4.8-6.4Q158.37,72.3,158.42,41.6Z"/><path d="M64.22,49.7c-.2-.1-.3-.4-.4-.7-.7-2.6-1.3-5.1-3.4-7-.3-.3-.3-1-.3-1.5a5.63,5.63,0,0,0-4.9-4.9,5.31,5.31,0,0,1-1.7-.8c-2.7-2.1-5.5-3.7-9.2-3.5-5.5.2-11,.3-16.5,0-3.7-.2-6.3,1.4-9,3.3a5.81,5.81,0,0,1-2.4,1.1c-3.8.6-7.7,4.7-8,8.5a5.23,5.23,0,0,1-.6,1.6c-1.2,1.7-3.2,3.5-3.2,5.3.1,3.2-3,4.1-3.6,6.7-.2.7-.9,1.5-.9,2.5,0,6.2.2,12.3-.1,18.5-.2,3.5,1.6,5.8,3.5,8.2.3.4.9.9.9,1.4,0,2.8,1.8,4.8,3.3,6.9a8.65,8.65,0,0,1,.7,1.7,10.43,10.43,0,0,0,.8,2.5,61.23,61.23,0,0,0,4.5,5.6c2.7,2.9,5.9,4.9,10.3,4.6,3.3-.2,6.6,0,9.9,0,4,0,8.1.2,12.1-.1a9.62,9.62,0,0,0,5.4-1.7A124.22,124.22,0,0,0,61,98.3a9.71,9.71,0,0,0,2.7-7.5c-.1-1.1-.1-2.7.6-3.3,2.5-2.3,2.9-5.1,2.9-8.2,0-7,.1-13.9,0-20.9C67.22,55.2,67,52,64.22,49.7Zm-6.8,19.1v4.4c0,3,.2,5.8-2,8.7-2.1,2.7-3,6.4-4.5,9.6a10.08,10.08,0,0,1-1.8,3.4,10.83,10.83,0,0,1-3.4,1.7c-1.3.6-2.8.8-3.7,1.8a4.46,4.46,0,0,1-3.6,1.1c-3.1,0-6.1-.1-9.2,0a5.82,5.82,0,0,1-4.6-1.8c-2.2-2.2-4.1-4.6-6.4-6.6a15.14,15.14,0,0,1-3.6-4.4c-.7-1.5-1-3.5-2.1-4.6-2-2-2-4.2-1.9-6.7.1-2.8,0-5.7,0-8.5a3.23,3.23,0,0,1,.3-1.7c1.1-1.7,2.5-3.1,3.5-4.9a6.82,6.82,0,0,0,.2-3.5,5.37,5.37,0,0,1,1.7-4.6c3.2-3,6.1-6.1,9.3-9.1A5,5,0,0,1,29,41.9c3.6,0,7.3.1,10.9.4.8,0,1.5.8,2.2,1.1a25,25,0,0,0,3.8,1.5c3.2.7,4,3.3,5,5.8.1.2-.1.6.1.8a9.39,9.39,0,0,1,3,6.2C57.72,60.5,57.52,64.6,57.42,68.8Z"/><path d="M368.42,102.5c-1.7-1.6-3.4-3.5-6.2-3.2-2.3.2-4.6,0-7,.1a1.71,1.71,0,0,1-1.9-2.1c.2-1.2.5-2.8,1.3-3.5,1.9-1.8,1.9-4,2-6.1.1-11.7.1-23.3,0-35a21.3,21.3,0,0,0-.3-2.5c-.3-1.9,2-5.2,3.9-5.3s3.8.1,5.5-.5a4.49,4.49,0,0,0,2.8-2.9c.6-3.1-2-5.7-5.2-5.7h-19.5a5.94,5.94,0,0,0-2.6.7c-1.8.9-3.5,2.3-5.4,2.9a4.49,4.49,0,0,0-3.6,4.4c-.3,3.4,1,5.1,4.4,5.1h6a4.36,4.36,0,0,1,4.6,4.6V84.1a5.17,5.17,0,0,1-1.1,3.2,11,11,0,0,0-2.9,8.8c.2,1.7-1.6,3.3-3.3,3.3h-2.6c-3.5,0-4.8,1.2-4.8,4.6,0,1-.1,2,0,3a2,2,0,0,0,.8,1.3,13.72,13.72,0,0,0,6.4,1.5c3.4-.2,6.8-.1,10.1-.1,1.1,0,2.3.1,3.4,0,4.2-.4,8.5,1,12.5-1.1C367.72,107.4,369.82,103.7,368.42,102.5Z"/><path d="M236.82,85.1c-.3.1-.6,1-.5,1.4a1.51,1.51,0,0,0,1.3.8,75.25,75.25,0,0,0,8.3-1c.6-.1,1.2-.8,1.9-1.3-.6-.4-.9-.8-1.2-.9A16.55,16.55,0,0,0,236.82,85.1Z"/><path d="M234.92,70a1.89,1.89,0,0,0,1.6.3c2.1-1.3,4.1-2.7,6.1-4.1a1.44,1.44,0,0,0,.4-1.5c-.1-.4-.8-.6-1.2-.8-.6.1-1,.1-1.2.3-2,1.4-3.9,2.8-5.8,4.3A2,2,0,0,0,234.92,70Z"/><path d="M169.52,94.6c-.7-.5-1.4-1.3-1.7-1.1-2.2,1-4.4,2.1-6.5,3.3-.2.1-.2,1.1,0,1.5a1.67,1.67,0,0,0,1.5.4,50.54,50.54,0,0,0,5.3-2.4A15.85,15.85,0,0,0,169.52,94.6Z"/><path d="M162.22,77a17.39,17.39,0,0,0,3.9,1.1,1.9,1.9,0,0,0,1.6-1c.2-.4-.3-1.4-.7-1.6a36.26,36.26,0,0,0-4.6-1.4c-.4.4-1.3.9-1.4,1.4S161.72,76.7,162.22,77Z"/><path d="M161.92,57.9c2.4,1.6,4.8,3.1,7.3,4.5a2.05,2.05,0,0,0,1.6-.2,3,3,0,0,0-.1-2.1,4.39,4.39,0,0,0-1.6-1.4c-2-1.2-4.1-2.4-6.2-3.6-.7.5-1.4.7-1.5,1A2.17,2.17,0,0,0,161.92,57.9Z"/><path d="M200.22,51.1l-.6-.3h0a2.66,2.66,0,0,0-1-1.1c-.1-.1-.2,0-.3,0-.4.3-.4,1-.3,1.5a2.85,2.85,0,0,0,.8,1.4,1.5,1.5,0,0,0,1.5.5.86.86,0,0,0,.5-1.3A.75.75,0,0,0,200.22,51.1Z"/><path d="M196.12,4.7a4.06,4.06,0,0,0,3.2-.9,4,4,0,0,0,1-1.2,2.39,2.39,0,0,0,.5-1.4,1,1,0,0,0-.8-1h-1.8a2.47,2.47,0,0,0-1.6.8,8.27,8.27,0,0,0-.9,1.6c-.1,0-.1.1-.1.2v.3c-.1.2-.4.3-.5.4a.62.62,0,0,0-.2.7C195,4.6,195.72,4.7,196.12,4.7Z"/><path d="M192.52,7.9a.62.62,0,0,0,.6-.4c.1-.3-.1-.5-.2-.7a2.54,2.54,0,0,1,.2-.7,1.41,1.41,0,0,0,.1-.9.52.52,0,0,0-.7-.3.1.1,0,0,0-.1.1c-.2-.1-.5.1-.6.3a6.89,6.89,0,0,0-.3.8,1.63,1.63,0,0,0,.3,1.5A1.33,1.33,0,0,0,192.52,7.9Z"/><path d="M213.42,11h.4c.1,0,.1,0,.2-.1v-.4c0-.1,0-.1-.1-.2l-.1-.1-.1-.1h-.3l-.1.1c-.1.1-.1.2-.2.3s0,.2,0,.3C213.32,11,213.32,11,213.42,11Z"/><path d="M189.22,12.5a2.35,2.35,0,0,0,.8.2l1.2.3a7.85,7.85,0,0,0,2.2.5,4.14,4.14,0,0,0,1.9-.5,1.8,1.8,0,0,1,1.2-.3l.9.3a1.42,1.42,0,0,0,.6-.2,83.52,83.52,0,0,1,10-.3h.1a.1.1,0,0,0,.1.1,1.22,1.22,0,0,1,.7,1.7c-.4.7-1.2.6-1.8.4a2,2,0,0,0-1.5-.1c-.5.2-.8.8-1.4.7-1-.1-1.6-1.1-2.7-.8a4.88,4.88,0,0,0-.7.3c-.3.1-.6-.1-.9,0s-.3.1-.5.3-.2.3-.4.3a1.39,1.39,0,0,1-.9,0,7.49,7.49,0,0,0-1.6-.4c-.6.1-1.2.6-1.8.6s-.6-.7-1.1-.5c-.2,0-.4.2-.6.3a1.9,1.9,0,0,1-1.3.1c-.4,0-.9-.2-1.3.1a.79.79,0,0,0,.1,1.1,3.92,3.92,0,0,0,1.4.8,12.09,12.09,0,0,0,1.8.5,4.33,4.33,0,0,0,1.9-.4c.7-.3,1.3-.9,2.1-.9a9.77,9.77,0,0,1,2.3.6,17.63,17.63,0,0,0,2.3,0c.1,0,.1,0,.2-.1h1.9a14.92,14.92,0,0,0,2.1-.2,7.14,7.14,0,0,1,2.1.2c.7.2.8.9.8,1.6a11.33,11.33,0,0,0-2.6-.1,6.11,6.11,0,0,0-1.3.3,4.19,4.19,0,0,1-1.5.4c-.7-.1-1.2-.9-2-.6-.4.1-.7.4-1.1.5a3.21,3.21,0,0,1-1.7.2.27.27,0,0,0-.3.3c.1.4-2,0-2.1-.1-.6-.2-1-.7-1.5-.9a2.37,2.37,0,0,0-2.7.8c-.2.1-.5-.2-.7-.3a1.09,1.09,0,0,0-.5-.1c-.2.1-.4.3-.6.4l-.3.3a1.38,1.38,0,0,0-.9.5c-.1.1,0,.3.1.4h.1c.2.3.5.3.9.2a9,9,0,0,0,1.6.3,2.83,2.83,0,0,0,1.8-.4,3.81,3.81,0,0,1,1.8-.3c1.3.1,2.5.2,3.8.2a17,17,0,0,0,2.3-.1,3.4,3.4,0,0,0,1-.1.78.78,0,0,0,.4-.4c.8-.2,1.7.4,2.5.4s1.7-.4,2.6-.1a1.09,1.09,0,0,1,.8.8v.6c0,.4-.2.4-.6.5a30.28,30.28,0,0,1-3.1.2.22.22,0,0,0-.2.2,1.69,1.69,0,0,0,1.6,1.8,2.2,2.2,0,0,0,.8-.1,2.12,2.12,0,0,1,.7-.3c.5,0,.8.6,1.3.6.9.1,1.7-1.1,1.7-1.9a4.42,4.42,0,0,0-.5-1.5c-.2-.5-.5-1.4.2-1.7.1,0,.1-.1.2-.2a1.27,1.27,0,0,1,.6-.1c.4.1.6.3.9.2.1,0,.1,0,.2-.1s.1-.5,0-.7l-.6-.6h-.1a6,6,0,0,0-.8-.8.76.76,0,0,0-.4-.2H211a1.42,1.42,0,0,1-.2-.6c0-.7.6-1,1.1-1.2s.8-.4.9-.9-.5-.8-.6-1.3.3-2.5-.7-2.3a2.36,2.36,0,0,0-1.9-.8c-.5.1-.9.5-1.4.5a4.45,4.45,0,0,1-1.6-.1,5.07,5.07,0,0,0-1.3.2,4.4,4.4,0,0,1-1.6.2,5,5,0,0,0-1.3-.4c-.2,0-.3.1-.5.1a9.85,9.85,0,0,0-1.7.2,16.35,16.35,0,0,1-2.2.2,4.33,4.33,0,0,1-.5-.1,6.93,6.93,0,0,0-2-.3,15,15,0,0,1-2.2.2,1.71,1.71,0,0,1-1.7-1.2c-.2-.4-.2-1.1-.6-1.5s-.7-.2-1.1,0h-.1c-.1,0-.1.1-.2.1a1.39,1.39,0,0,0-.7.8h0a.25.25,0,0,0,.1.4,4.13,4.13,0,0,1,1.1.7c.1.1.4.3.1.3a1.06,1.06,0,0,1-.5-.2,1.14,1.14,0,0,0-1.2.6A2.26,2.26,0,0,0,189.22,12.5Z"/><path d="M200.82,3.9a5.83,5.83,0,0,0,.8,1.8,1.44,1.44,0,0,0,1.3.8,1.78,1.78,0,0,1,1,.4,1.79,1.79,0,0,0,.7.5,1.74,1.74,0,0,0,1.4.3,4.67,4.67,0,0,1,1.7-.3c.6,0,.9.7,1.5.8a.37.37,0,0,0,.3-.1,2,2,0,0,0,.2-1.5,2.58,2.58,0,0,0-.9-.9,2.66,2.66,0,0,1-1-1.1,8.33,8.33,0,0,1-.4-1.5,3.42,3.42,0,0,0-1.3-2.4,4.83,4.83,0,0,0-2.9-.7,1.43,1.43,0,0,0-1.1.3.1.1,0,0,0-.1.1l-.1.1a1.38,1.38,0,0,0-.1,1.1.1.1,0,0,1-.1.1c-.2.2-.5.4-.6.6A2.41,2.41,0,0,0,200.82,3.9Z"/><path d="M174,47.5c.6.8.8,1.8,1.4,2.5.3.4,1.1.8,1.5.6s.8-.9,1-1.2a10.42,10.42,0,0,0-.1-1.1c-1.8-2.7-2.9-6.1-5.8-7.9-.6-.4-1.5-.2-2.2-.3a8,8,0,0,0,.3,2.3C171.42,44.1,172.82,45.7,174,47.5Z"/><path d="M228.92,57.6a2.17,2.17,0,0,0,1.7.3,11,11,0,0,0,2.3-2c1.5-1.3,3-2.6,4.5-4a22.06,22.06,0,0,0,1.7-2.2c-1.2-.4-2-.9-2.5-.7-3.5,1.4-5.7,4.3-7.8,7.3A1.5,1.5,0,0,0,228.92,57.6Z"/><path d="M174.12,107.4c-2.3,2-4.6,4.1-6.7,6.3-.3.3-.1,1.4.2,1.8a1.71,1.71,0,0,0,1.7.1c2-1.6,3.9-3.3,5.8-5a8,8,0,0,0,1.2-2.3C175.42,108,174.42,107.2,174.12,107.4Z"/><path d="M239.82,103c-2-1.2-4-2.4-6.1-3.4-.5-.2-1.4.2-2,.5-.2.1,0,1.4.3,1.6,2,1.4,4.2,2.6,6.3,3.9.3.2.6.1,1.4.1.2-.2,1-.6,1-1A2.59,2.59,0,0,0,239.82,103Z"/><path d="M206.42,117.7c-.4,0-.9.6-1,1a20.84,20.84,0,0,0-.5,3.4,25.38,25.38,0,0,0,1,3.6c.2.4.8,1,1.2,1s1.1-.7,1.1-1.1c-.1-2.4-.3-4.7-.5-7A1.38,1.38,0,0,0,206.42,117.7Z"/><path d="M225.42,47.9c1.2-.2,4.8-4.6,4.8-5.8,0-.6-.5-1.1-.8-1.6-.6.2-.9.2-1.1.4-1.5,1.6-3.1,3.2-4.5,5-.3.3-.1,1.2.2,1.6S225,47.9,225.42,47.9Z"/><path d="M190.92,117.4a2.07,2.07,0,0,0-1.7.9,23.17,23.17,0,0,0-1.6,4.4c-.1.4.5,1.3.9,1.5a2,2,0,0,0,1.7-.3c.7-1.6,1.2-3.3,1.9-5.1C191.72,118.3,191.32,117.4,190.92,117.4Z"/><path d="M221.52,112.6a2.61,2.61,0,0,0,.3,1.6,27,27,0,0,0,2.2,3.3,2.4,2.4,0,0,0,1.7.9c.4,0,.7-.9,1.2-1.8a36.79,36.79,0,0,0-3.4-4.4C223.32,111.9,222.12,112.3,221.52,112.6Z"/><path d="M227.22,65.5c-2.8-4.7-5.4-9.4-7.8-14.3-1.3-2.7-1.7-5.8-2.6-8.6a28.1,28.1,0,0,1-1.1-13.5,2.27,2.27,0,0,0-2-2.8l-2.2-.3h-.3a16.35,16.35,0,0,0-2.2-.2c-.5,0-1.1,0-1.3.6a.63.63,0,0,0,.3.8c.2.2.4.2.4.5a1.42,1.42,0,0,1-.2.6,3.59,3.59,0,0,1-.7,1c-1,1.1-1.9,2.2-2.9,3.3a12.88,12.88,0,0,1-1.7,1.6,2.65,2.65,0,0,0-.5.6c-.1.1-.1.2-.2.4s-.1.4-.1.5h0c-.3.4-1.1-.3-1.6-.8h0c0-.2.1-.5-.1-.7s-.2-.1-.3-.2-.1-.3,0-.4.5-.4.7-.6.2-.5.3-.8V30.5c0-.1.1-.1.1-.2s.2-.1.2-.2a4.36,4.36,0,0,0,1.4-1.3c.1,0,.1,0,.2-.1l1.8-1.8c.1-.1.1-.1.1-.2s.1-.1.1-.2c.4-.8-.4-1.4-.4-2.1a.25.25,0,0,0-.5,0,1.49,1.49,0,0,1-.3.7.52.52,0,0,0-.4.2.1.1,0,0,0-.1.1h-.1c-.6,0-.8-.5-1.2-.7-.7-.3-1.3.3-1.8.7-.7.6-1.8.4-2.7.4a5.07,5.07,0,0,1-1.3-.2c-.5-.1-.9-.4-1.3-.5-.8-.2-1.5.5-2.2.7a4.27,4.27,0,0,1-2.5.1v-.3c-.1,0-.2,0-.2-.1a1.38,1.38,0,0,0-1.8.2c-.5.6-.6,1.4-1.2,1.9a2.34,2.34,0,0,0-.7.7,6.75,6.75,0,0,0-.2,1.4,27.15,27.15,0,0,0,.1,2.9h0a42.76,42.76,0,0,1-2.3,15,87.06,87.06,0,0,1-7,16.3c-1.4,2.5-2.5,5.1-3.9,7.6-1.8,3.3-1.7,7-2,10.6a27.52,27.52,0,0,0,3.4,14.9c1.3,2.5,3.7,4.5,5.4,6.8a23.82,23.82,0,0,0,11.9,8.2,25.23,25.23,0,0,0,13.4,1.2,38.24,38.24,0,0,0,13.6-5.3A34.17,34.17,0,0,0,226,101a28.53,28.53,0,0,0,4.1-7.2,32.57,32.57,0,0,0,1.7-10.8A30.88,30.88,0,0,0,227.22,65.5Zm-27.5-27.4v.1h0Zm-3,3.8V38.8a6.6,6.6,0,0,1,.1-1.4c.1-.5.5-.7.8-1a4.25,4.25,0,0,0,1-1.7.45.45,0,0,1,.5,0,4.33,4.33,0,0,0,.1.5V38c-.2.6-.5,1.2-.7,1.8a5.07,5.07,0,0,0-.2,1.3c0,.4.2.6.4,1,.5,1-.6,1.8-1.3,2.2-.2.1-.4.3-.6.1s0-.6,0-.8A10.9,10.9,0,0,1,196.72,41.9Zm2,2.4v0Zm-3.8,21Zm-3.5-6.7c.2-.3.4-.2.7,0s.5.2.6.4c.4.5.1,1.2,0,1.8a1.46,1.46,0,0,0,.5,1.2c.2.2.5.3.6.5a1.08,1.08,0,0,1,.3.7,3.28,3.28,0,0,1-.1,1.7c-.2,1-1.1,2.2-2.1,1.9a2.59,2.59,0,0,0,.7-1.1v-.3a2.05,2.05,0,0,0,0-1.1V62.8c-.1-.7-.8-1.1-1.3-1.6h0a12.75,12.75,0,0,0-.1-2c0-.1,0-.1-.1-.2C191.32,58.9,191.32,58.7,191.42,58.6Zm6.1,25.8h0a1.88,1.88,0,0,1-.8-.2,7.46,7.46,0,0,1-1.2-.7,14.63,14.63,0,0,1-1.3-.9h0a8.65,8.65,0,0,0-1-.7,10.9,10.9,0,0,1-1.9-1.8,16.44,16.44,0,0,0-1.4-2.2,8.7,8.7,0,0,1-.9-1.1,1.42,1.42,0,0,1-.2-.6v-.3h0c.2,0,.4-.1.6-.1a3.59,3.59,0,0,1,1.7,1.5.35.35,0,0,0,.1.2l.3.6c0,.1,0,.1.1.2a1.82,1.82,0,0,0,1.1,1h.1a14.29,14.29,0,0,1,1.4,2,4,4,0,0,0,1.6,1.3c.6.3,1.6.6,2,1.2A.45.45,0,0,1,197.52,84.4Zm3.8,1.3a.4.4,0,0,1-.2.4h-.7a.55.55,0,0,1-.5-.3,1,1,0,0,0-.5-.4c-.2-.1-.3-.2-.2-.4l.3-.3c.1-.1.2-.2.3-.2h.1a1.88,1.88,0,0,1,.8.2,1,1,0,0,1,.5.4C201.32,85.2,201.32,85.5,201.32,85.7Zm-2.1-2.8Zm3.3-1.2-.1.1c-.1,0-.2.1-.3.1a.9.9,0,0,1-.5-.1,1,1,0,0,1-.6-.8v-.2h.2l.9.1a2.19,2.19,0,0,1,.3.5v.2C202.62,81.5,202.62,81.6,202.52,81.7Zm2.3-9.9a1.5,1.5,0,0,1-.9,1,3.55,3.55,0,0,1-1,.2,7.1,7.1,0,0,1-2.9-.5,7.54,7.54,0,0,1-1.3-.6c-.3-.2-.5-.4-.8-.6h0c-.1,0-.1-.1-.2-.1a1.13,1.13,0,0,0-1.1.3c-.1.1-.2.1-.3.3a.9.9,0,0,0-.1.5c.1.3.2.5.3.8.1.5.3,1.6-.4,1.8s-.9-1-1.2-1.4c-.2-.2-.3-.4-.5-.6s-.4-.3-.5-.5-.2-.3-.2-.5.2-.3.2-.5l.6-.6.2-.2c.1-.1.2-.1.3-.3a1.48,1.48,0,0,0,.1-.7,4.08,4.08,0,0,0,.1-1.9c0-.1,0-.2-.1-.2s.1-.1.2-.2a3,3,0,0,1,1.3-.5c.2,0,.5-.1.6.1s-.2.6-.4.7a1.13,1.13,0,0,0-.3,1.1,1.21,1.21,0,0,0,.7.7,1.7,1.7,0,0,0,.7.1,1.42,1.42,0,0,1,.6.2h0a2.14,2.14,0,0,0,1.6,1.3,6.15,6.15,0,0,0,1.4.1h.3c.4-.1.8-.2,1.1-.3a1.93,1.93,0,0,1,1.3,0C204.72,71.1,204.92,71.4,204.82,71.8Zm-6-4.7Zm5.8,2.5h-.1C204.62,69.5,204.62,69.6,204.62,69.6Zm.1-1.6h0l.1.1a.1.1,0,0,1-.1-.1Zm4.2,2h-.1c-.7.1-1.5.1-1.6-.7a1.64,1.64,0,0,0-.7-1.1,1.42,1.42,0,0,0-.6-.2c-.2-.1-.7-.1-.8-.4s.1-.5.1-.8a1.27,1.27,0,0,0-.1-.6,2,2,0,0,0-.9-.9,10.09,10.09,0,0,0-1.5-.7c-.3-.1-1-.4-1.4-.2a.27.27,0,0,0-.4.2v.2a3.09,3.09,0,0,0-.2.8c0,.1,0,.1.1.2a1.7,1.7,0,0,0,.1.7c.2.5.8.6,1.2.7a2.51,2.51,0,0,1,.7.4,1.69,1.69,0,0,1,.2.5c0,.1,0,.1-.1.2a1.47,1.47,0,0,1-.6.5c-.4,0-.8-.1-1.2-.1a2.09,2.09,0,0,0-.4-.6,2.19,2.19,0,0,0-.5-.3,2.65,2.65,0,0,0-.5-.6,3.51,3.51,0,0,0-.5-.8l-.3-.3a1.33,1.33,0,0,0-.8-.3c-.1,0-.1-.1-.2-.1-.3-.1-.5-.3-.4-.6a1,1,0,0,1,.5-.6,13.32,13.32,0,0,1,1.9-.5c.6-.2,1-.6,1.6-.8a3.08,3.08,0,0,1,2.1.4,10.81,10.81,0,0,0,1.8,1.1c.6.3,1.2.5,1.4,1.2.2.5.1,1.1.4,1.6a.64.64,0,0,0,1,.3c.5-.3.6-1,.7-1.5a3.81,3.81,0,0,0-.1-1.5,2.2,2.2,0,0,1,.1-.8h.2l.2.2a.6.6,0,0,1,.1.4c.1.3.2.7.3,1.1C210,66.9,210.32,69.4,208.92,70Zm-7.2-5.1c-.1,0-.2,0-.2.1h.1C201.52,64.9,201.62,64.9,201.72,64.9Zm2.4-4.1a1,1,0,0,1-1-.3,1.68,1.68,0,0,1-.3-1.2,5.7,5.7,0,0,1,1.3.1.6.6,0,0,1,.4.1h.3V60A1.12,1.12,0,0,1,204.12,60.8Zm3.6,4.6h0a.1.1,0,0,1,.1.1Zm4.8-13.4c-.1.4-.5.6-.8.9s-.7.5-1,.8a8,8,0,0,1-1.9,1.3c-.7.3-1.4.1-2,.3s-.8,1-1.4,1.2a5.45,5.45,0,0,1-2.2.1,14.77,14.77,0,0,0-2.1-.1H201a2.37,2.37,0,0,0-1.9-1.1,1.16,1.16,0,0,0-1,.4c-.3.4-.2,1-.3,1.4a6.09,6.09,0,0,0,0,3,12.75,12.75,0,0,0,.7,1.2,3.18,3.18,0,0,1,.2,1.4.73.73,0,0,1-.6-.2,1.79,1.79,0,0,0-.7-.5c-.6-.1-1.3.1-1.8-.4a2.62,2.62,0,0,1-.5-1.7v-.4h0a7.34,7.34,0,0,0,.5-2c.1-1-.1-2,0-3s.5-1.9.6-2.8a4.87,4.87,0,0,0,.1-1.2A23.26,23.26,0,0,0,198,48c.1-.2.3-.5.4-.7a1,1,0,0,1,.5-.4.83.83,0,0,0,.3-.8c0-.2.1-.3.2-.3h0c.3,0,.6.4.9.5a1.67,1.67,0,0,0,1.2.1c.9-.2,1.6-1,2.4-1.4h1.9c.1.1.1.1.2.1h.4a13.22,13.22,0,0,1,3.2,3.5,4.13,4.13,0,0,1-.2,1.9c-.1.4-.2,1-.6,1.2a2.15,2.15,0,0,1-1.1.2c-.2,0-.6,0-.7-.2s0-.5,0-.7a5,5,0,0,0,.3-1.3,1.9,1.9,0,0,0-.5-1.9,4.19,4.19,0,0,0-2.1-.8,2.46,2.46,0,0,0-1.2.1,7.37,7.37,0,0,1-1.4.4c-.7,0-1.4-.3-1.9.4a1.67,1.67,0,0,0,0,1.8,2.76,2.76,0,0,0,1.5,1.5c.7.3,1.7.1,2.4.5v.1c.3.5-.4.8-.7,1a1.79,1.79,0,0,0-.5.7,1.09,1.09,0,0,0,.5,1.3,2,2,0,0,0,1.7-.1,7.84,7.84,0,0,1,1.4-.5h.1a2.86,2.86,0,0,0,1.6-.1,2.54,2.54,0,0,0,1.3-1.2A13.93,13.93,0,0,1,211,51c.1-.1.2-.3.4-.4a.37.37,0,0,1,.5.2h0v.1C212.62,51.1,212.72,51.6,212.52,52Zm-6.9-.3h0V52h0v-.3Zm-.4-1.4Zm-1.8-.9Zm9.5,3a.1.1,0,0,1,.1-.1l-.1.1Zm.2-1.3Z"/></g></g></svg>